<svg id="visual" viewBox="0 0 900 600" width="900" height="600" xmlns="http://www.w3.org/2000/svg" xmlns:xlink="http://www.w3.org/1999/xlink" version="1.1"><rect x="0" y="0" width="900" height="600" fill="#001220"></rect><path d="M0 420L16.7 416.7C33.3 413.3 66.7 406.7 100 403.2C133.3 399.7 166.7 399.3 200 403.2C233.3 407 266.7 415 300 407.2C333.3 399.3 366.7 375.7 400 365.3C433.3 355 466.7 358 500 362.7C533.3 367.3 566.7 373.7 600 386C633.3 398.3 666.7 416.7 700 412C733.3 407.3 766.7 379.7 800 376.5C833.3 373.3 866.7 394.7 883.3 405.3L900 416L900 601L883.3 601C866.7 601 833.3 601 800 601C766.7 601 733.3 601 700 601C666.7 601 633.3 601 600 601C566.7 601 533.3 601 500 601C466.7 601 433.3 601 400 601C366.7 601 333.3 601 300 601C266.7 601 233.3 601 200 601C166.7 601 133.3 601 100 601C66.7 601 33.3 601 16.7 601L0 601Z" fill="#02a388"></path><path d="M0 483L16.7 471C33.3 459 66.7 435 100 431C133.3 427 166.7 443 200 447.3C233.3 451.7 266.7 444.3 300 442.8C333.3 441.3 366.7 445.7 400 441.5C433.3 437.3 466.7 424.7 500 423C533.3 421.3 566.7 430.7 600 434.3C633.3 438 666.7 436 700 439.7C733.3 443.3 766.7 452.7 800 460.3C833.3 468 866.7 474 883.3 477L900 480L900 601L883.3 601C866.7 601 833.3 601 800 601C766.7 601 733.3 601 700 601C666.7 601 633.3 601 600 601C566.7 601 533.3 601 500 601C466.7 601 433.3 601 400 601C366.7 601 333.3 601 300 601C266.7 601 233.3 601 200 601C166.7 601 133.3 601 100 601C66.7 601 33.3 601 16.7 601L0 601Z" fill="#03967c"></path><path d="M0 458L16.7 460.7C33.3 463.3 66.7 468.7 100 474.7C133.3 480.7 166.7 487.3 200 487.7C233.3 488 266.7 482 300 477.3C333.3 472.7 366.7 469.3 400 467.5C433.3 465.7 466.7 465.3 500 475.2C533.3 485 566.7 505 600 504.7C633.3 504.3 666.7 483.7 700 477C733.3 470.3 766.7 477.7 800 485C833.3 492.3 866.7 499.7 883.3 503.3L900 507L900 601L883.3 601C866.7 601 833.3 601 800 601C766.7 601 733.3 601 700 601C666.7 601 633.3 601 600 601C566.7 601 533.3 601 500 601C466.7 601 433.3 601 400 601C366.7 601 333.3 601 300 601C266.7 601 233.3 601 200 601C166.7 601 133.3 601 100 601C66.7 601 33.3 601 16.7 601L0 601Z" fill="#038a70"></path><path d="M0 540L16.7 543.2C33.3 546.3 66.7 552.7 100 553.2C133.3 553.7 166.7 548.3 200 549.8C233.3 551.3 266.7 559.7 300 560.7C333.3 561.7 366.7 555.3 400 550.8C433.3 546.3 466.7 543.7 500 544.7C533.3 545.7 566.7 550.3 600 549.5C633.3 548.7 666.7 542.3 700 534.8C733.3 527.3 766.7 518.7 800 515.7C833.3 512.7 866.7 515.3 883.3 516.7L900 518L900 601L883.3 601C866.7 601 833.3 601 800 601C766.7 601 733.3 601 700 601C666.7 601 633.3 601 600 601C566.7 601 533.3 601 500 601C466.7 601 433.3 601 400 601C366.7 601 333.3 601 300 601C266.7 601 233.3 601 200 601C166.7 601 133.3 601 100 601C66.7 601 33.3 601 16.7 601L0 601Z" fill="#027d65"></path></svg>